<?xml version="1.0" encoding="UTF-8"?>
<svg version="1.1" xmlns="http://www.w3.org/2000/svg" width="156" height="32">
<path d="M0 0 C51.48 0 102.96 0 156 0 C156 10.56 156 21.12 156 32 C104.52 32 53.04 32 0 32 C0 21.44 0 10.88 0 0 Z " fill="#FBFDFC" transform="translate(0,0)"/>
<path d="M0 0 C1.65 0 3.3 0 5 0 C5 7.59 5 15.18 5 23 C0.14060041 23 -4.22127289 22.93867854 -9 22 C-11.48038907 18.2794164 -11.46337203 16.40203429 -11 12 C-9.4375 9.5 -9.4375 9.5 -7 8 C-3.25 8.25 -3.25 8.25 0 9 C0 6.03 0 3.06 0 0 Z " fill="#1D9992" transform="translate(43,2)"/>
<path d="M0 0 C3.125 -0.1875 3.125 -0.1875 6 0 C7.17192435 3.12305373 8.33663876 6.24874739 9.5 9.375 C9.83386719 10.26445312 10.16773437 11.15390625 10.51171875 12.0703125 C10.82753906 12.92109375 11.14335937 13.771875 11.46875 14.6484375 C11.90864258 15.82672119 11.90864258 15.82672119 12.35742188 17.02880859 C13 19 13 19 13 21 C11.02 21 9.04 21 7 21 C7 19.68 7 18.36 7 17 C4.03 17 1.06 17 -2 17 C-2 18.32 -2 19.64 -2 21 C-3.98 21 -5.96 21 -8 21 C-7.04908804 18.060045 -6.08799565 15.12351697 -5.125 12.1875 C-4.72087891 10.93743164 -4.72087891 10.93743164 -4.30859375 9.66210938 C-4.04433594 8.85966797 -3.78007812 8.05722656 -3.5078125 7.23046875 C-3.26691895 6.49207764 -3.02602539 5.75368652 -2.77783203 4.99291992 C-2 3 -2 3 0 0 Z " fill="#239A91" transform="translate(18,4)"/>
<path d="M0 0 C2.9375 1.625 2.9375 1.625 5 4 C5.625 6.9375 5.625 6.9375 5 10 C2.9375 12.875 2.9375 12.875 0 15 C-3.99048721 15.63007693 -6.01685857 15.63021887 -9.4375 13.4375 C-11.60396028 10.05782196 -11.56288002 7.94016013 -11 4 C-8.10445004 -0.51705794 -5.12679803 -0.7195506 0 0 Z " fill="#1D9990" transform="translate(124,10)"/>
<path d="M0 0 C2.375 1.125 2.375 1.125 4 3 C4.25 6.1875 4.25 6.1875 4 9 C1.03 9 -1.94 9 -5 9 C-5 9.66 -5 10.32 -5 11 C-2.36 11 0.28 11 3 11 C2.67 12.32 2.34 13.64 2 15 C-5.22891566 15.48192771 -5.22891566 15.48192771 -8.5 13.4375 C-10.58392818 10.05111671 -10.55802097 7.90614682 -10 4 C-7.24846472 -0.12730291 -4.82246105 -0.70327557 0 0 Z " fill="#2E9F95" transform="translate(77,10)"/>
<path d="M0 0 C2.33333333 0 4.66666667 0 7 0 C8.2375 -0.061875 8.2375 -0.061875 9.5 -0.125 C12 0 12 0 14 2 C14.1953125 5.0390625 14.1953125 5.0390625 14.125 8.625 C14.10695313 9.81351563 14.08890625 11.00203125 14.0703125 12.2265625 C14.04710938 13.14179688 14.02390625 14.05703125 14 15 C12.68 15 11.36 15 10 15 C9.67 11.7 9.34 8.4 9 5 C7.68 5 6.36 5 5 5 C4.67 8.3 4.34 11.6 4 15 C2.68 15 1.36 15 0 15 C0 10.05 0 5.1 0 0 Z " fill="#16968B" transform="translate(84,10)"/>
<path d="M0 0 C1.65 0 3.3 0 5 0 C5.99 2.64 6.98 5.28 8 8 C8.99 5.36 9.98 2.72 11 0 C12.65 0 14.3 0 16 0 C12.92482916 10.55808656 12.92482916 10.55808656 11 15 C9.02 15 7.04 15 5 15 C4.16475914 12.68817262 3.33172414 10.37559226 2.5 8.0625 C2.26152344 7.40314453 2.02304687 6.74378906 1.77734375 6.06445312 C0 1.11328125 0 1.11328125 0 0 Z " fill="#1D9993" transform="translate(50,10)"/>
<path d="M0 0 C0 1.65 0 3.3 0 5 C0.99 5 1.98 5 3 5 C3 5.99 3 6.98 3 8 C2.01 8 1.02 8 0 8 C0 10.64 0 13.28 0 16 C0.99 16 1.98 16 3 16 C3 17.32 3 18.64 3 20 C0.125 20.125 0.125 20.125 -3 20 C-5 18 -5 18 -5.1953125 15.6171875 C-5.17210938 14.71226563 -5.14890625 13.80734375 -5.125 12.875 C-5.10695313 11.96492188 -5.08890625 11.05484375 -5.0703125 10.1171875 C-5.04710938 9.41851562 -5.02390625 8.71984375 -5 8 C-5.66 8 -6.32 8 -7 8 C-7 7.01 -7 6.02 -7 5 C-6.34 5 -5.68 5 -5 5 C-5 3.68 -5 2.36 -5 1 C-2 0 -2 0 0 0 Z " fill="#1E9892" transform="translate(108,5)"/>
<path d="M0 0 C3.33333333 0 6.66666667 0 10 0 C10 1.32 10 2.64 10 4 C8.68 4.33 7.36 4.66 6 5 C5.67 8.3 5.34 11.6 5 15 C3.35 15 1.7 15 0 15 C0 10.05 0 5.1 0 0 Z " fill="#229993" transform="translate(132,10)"/>
<path d="M0 0 C2.5 0.125 2.5 0.125 3.5 1.125 C3.625 3.625 3.625 3.625 3.5 6.125 C2.5 7.125 2.5 7.125 -0.0625 7.1875 C-1.2690625 7.1565625 -1.2690625 7.1565625 -2.5 7.125 C-2.88133299 5.1335944 -3.21325582 3.13220923 -3.5 1.125 C-2.5 0.125 -2.5 0.125 0 0 Z " fill="#ECF8F7" transform="translate(120.5,13.875)"/>
<path d="M0 0 C1.2065625 0.0309375 1.2065625 0.0309375 2.4375 0.0625 C2.4375 2.0425 2.4375 4.0225 2.4375 6.0625 C0.78135343 6.44468767 -0.88707024 6.77645102 -2.5625 7.0625 C-3.5625 6.0625 -3.5625 6.0625 -3.6875 3.5625 C-3.51717518 0.15600356 -3.41884482 0.08338646 0 0 Z " fill="#F7FAF3" transform="translate(40.5625,13.9375)"/>
<path d="M0 0 C1.9451 2.91765 2.45276317 4.62537285 3 8 C1.35 8 -0.3 8 -2 8 C-1.125 2.25 -1.125 2.25 0 0 Z " fill="#DFF4EF" transform="translate(20,9)"/>
<path d="M0 0 C1.98 0.495 1.98 0.495 4 1 C3.67 2.32 3.34 3.64 3 5 C1.68 4.67 0.36 4.34 -1 4 C-0.67 2.68 -0.34 1.36 0 0 Z " fill="#20968B" transform="translate(142,20)"/>
<path d="M0 0 C2 0 4 0 6 0 C6 1.32 6 2.64 6 4 C4.35 4 2.7 4 1 4 C0.67 2.68 0.34 1.36 0 0 Z " fill="#179C9D" transform="translate(136,10)"/>
</svg>
